<?xml version="1.0" encoding="UTF-8" standalone="no"?>
<!DOCTYPE svg PUBLIC "-//W3C//DTD SVG 1.1//EN" "http://www.w3.org/Graphics/SVG/1.1/DTD/svg11.dtd">
<svg width="100%" height="100%" viewBox="0 0 1011 208" version="1.1" xmlns="http://www.w3.org/2000/svg" xmlns:xlink="http://www.w3.org/1999/xlink" xml:space="preserve" xmlns:serif="http://www.serif.com/" style="fill-rule:evenodd;clip-rule:evenodd;stroke-linejoin:round;stroke-miterlimit:2;">
    <g transform="matrix(1,0,0,1,-19.806,-14.856018)">
        <g transform="matrix(1,0,0,1,-217,-286)">
            <g transform="matrix(0.482252,0,0,0.482252,122.123503,202.545979)">
                <path d="M499.373,335.358C483.868,335.358 470.948,347.991 470.948,363.496C470.948,379.288 483.868,391.921 499.373,391.921C515.164,391.921 527.798,379.288 527.798,363.496C527.798,361.773 527.798,359.763 527.224,358.041C524.64,359.763 521.768,360.912 518.61,360.912L518.61,361.486C518.61,365.219 515.452,368.377 511.432,368.377C507.699,368.377 504.541,365.219 504.541,361.486C504.541,360.05 505.115,358.615 505.977,357.466C501.383,354.021 498.225,348.565 498.225,342.249C498.225,339.665 498.799,337.368 499.66,335.358L499.373,335.358Z" style="fill:rgb(3,4,5);"/>
            </g>
        </g>
        <g transform="matrix(1,0,0,1,-217,-286)">
            <g transform="matrix(0.482252,0,0,0.482252,122.123503,202.545979)">
                <path d="M499.373,301.765C465.206,301.765 437.642,329.616 437.642,363.496C437.642,397.664 465.206,425.514 499.373,425.514C533.54,425.514 561.391,397.664 561.391,363.496C561.391,329.616 533.54,301.765 499.373,301.765ZM407.207,572.521C407.207,589.46 420.989,603.529 437.929,603.529C454.869,603.529 468.651,589.46 468.651,572.521L468.651,541.798C468.651,525.146 482.433,511.076 499.373,511.076C516.313,511.076 530.095,525.146 530.095,541.798L530.095,603.529C530.095,620.182 544.164,634.251 560.816,634.251C577.757,634.251 591.539,620.182 591.539,603.529L591.539,511.076L652.982,455.662L675.378,455.662C687.725,455.662 697.486,445.613 697.486,433.554L697.486,379.862C697.486,367.516 687.725,357.466 675.378,357.466L652.982,357.466C652.982,273.053 584.073,203.856 499.373,203.856C414.959,203.856 345.763,273.053 345.763,357.466L323.655,357.466C311.309,357.466 301.259,367.516 301.259,379.862L301.259,433.554C301.259,445.613 311.309,455.662 323.655,455.662L345.763,455.662L407.207,511.076L407.207,572.521Z" style="fill:rgb(205,38,40);"/>
            </g>
        </g>
        <g transform="matrix(1,0,0,1,-217,-286)">
            <g transform="matrix(0.482252,0,0,0.482252,122.123503,202.545979)">
                <path d="M707.248,433.554L761.227,433.554C761.227,403.693 737.109,379.862 707.248,379.862L707.248,433.554Z" style="fill:rgb(205,38,40);"/>
            </g>
        </g>
        <g transform="matrix(1,0,0,1,-217,-286)">
            <g transform="matrix(0.482252,0,0,0.482252,122.123503,202.545979)">
                <path d="M291.498,433.554L237.806,433.554C237.806,403.693 261.924,379.862 291.498,379.862L291.498,433.554Z" style="fill:rgb(205,38,40);"/>
            </g>
        </g>
        <g transform="matrix(1.359489,0,0,0.463158,-837.562924,-54.163004)">
            <path d="M881.266,409.185C880.348,411.465 879.166,413.279 877.718,414.626C876.27,415.974 874.593,416.647 872.687,416.647C870.144,416.647 868.044,415.715 866.384,413.849C864.725,411.984 863.648,408.771 863.154,404.211C861.176,385.971 859.552,371.203 858.281,359.906C857.01,348.61 856.022,338.713 855.315,330.215L854.786,330.215C854.574,342.444 854.415,353.585 854.309,363.637C854.203,373.69 854.133,383.484 854.097,393.018C854.062,402.553 853.991,412.191 853.885,421.933C853.78,431.675 853.621,442.453 853.409,454.267C852.491,455.304 851.29,456.185 849.807,456.91C848.325,457.635 846.842,457.998 845.359,457.998C842.252,457.998 839.833,456.547 838.103,453.645C836.373,450.744 835.508,445.458 835.508,437.789L838.58,279.225C839.145,276.531 840.38,273.629 842.287,270.52C844.194,267.411 846.877,265.856 850.337,265.856C854.08,265.856 857.01,267.566 859.129,270.986C861.247,274.406 862.801,279.951 863.789,287.62C864.425,292.595 865.113,298.295 865.855,304.72C866.596,311.145 867.338,317.778 868.079,324.618C868.82,331.458 869.544,338.246 870.25,344.983C870.957,351.719 871.592,357.782 872.157,363.171L872.687,363.171C874.381,345.76 876.076,328.919 877.771,312.648C879.466,296.377 881.019,282.749 882.431,271.764C883.491,270.105 884.85,268.706 886.509,267.566C888.169,266.426 890.023,265.856 892.07,265.856C895.531,265.856 898.355,267.359 900.544,270.365C902.733,273.37 904.004,277.671 904.357,283.267C904.64,287.413 904.94,293.786 905.258,302.388C905.575,310.99 905.911,320.68 906.264,331.458C906.617,342.236 906.97,353.636 907.323,365.658C907.676,377.68 908.012,389.235 908.329,400.325C908.647,411.414 908.912,421.57 909.124,430.794C909.336,440.017 909.477,447.116 909.548,452.091C908.347,454.164 907.094,455.666 905.787,456.599C904.481,457.532 902.804,457.998 900.756,457.998C898.073,457.998 895.813,456.651 893.977,453.956C892.141,451.262 891.152,445.976 891.011,438.1C890.587,415.507 890.323,395.195 890.217,377.162C890.111,359.129 889.952,343.998 889.74,331.769L889.21,331.769C888.504,339.853 887.48,350.009 886.139,362.238C884.797,374.467 883.173,390.116 881.266,409.185Z" style="fill:rgb(205,38,40);fill-rule:nonzero;"/>
        </g>
        <g transform="matrix(1.359489,0,0,0.463158,-837.562924,-54.163004)">
            <path d="M978.185,385.867C978.185,397.06 977.532,407.268 976.226,416.492C974.919,425.715 973.03,433.592 970.559,440.121C968.087,446.65 965.086,451.676 961.555,455.2C958.025,458.724 954.035,460.485 949.586,460.485C945.137,460.485 941.148,458.724 937.617,455.2C934.086,451.676 931.085,446.65 928.614,440.121C926.142,433.592 924.253,425.715 922.947,416.492C921.64,407.268 920.987,397.06 920.987,385.867L920.987,267.1C921.764,266.685 923,266.115 924.694,265.39C926.389,264.665 928.013,264.302 929.567,264.302C931.191,264.302 932.621,264.665 933.857,265.39C935.092,266.115 936.134,267.411 936.981,269.276C937.829,271.142 938.464,273.733 938.888,277.049C939.312,280.365 939.524,284.718 939.524,290.107L939.524,384.935C939.524,394.884 940.459,402.656 942.33,408.253C944.202,413.849 946.62,416.647 949.586,416.647C952.623,416.647 955.059,413.849 956.895,408.253C958.731,402.656 959.649,394.884 959.649,384.935L959.649,267.1C960.425,266.685 961.661,266.115 963.356,265.39C965.051,264.665 966.675,264.302 968.228,264.302C969.853,264.302 971.282,264.665 972.518,265.39C973.754,266.115 974.796,267.411 975.643,269.276C976.49,271.142 977.126,273.733 977.55,277.049C977.973,280.365 978.185,284.718 978.185,290.107L978.185,385.867Z" style="fill:rgb(205,38,40);fill-rule:nonzero;"/>
        </g>
        <g transform="matrix(1.359489,0,0,0.463158,-837.562924,-54.163004)">
            <path d="M1001.488,456.444C998.452,456.444 996.051,453.853 994.285,448.671C992.52,443.489 991.637,436.442 991.637,427.529L991.637,266.789C992.414,266.375 993.65,265.805 995.344,265.079C997.039,264.354 998.663,263.991 1000.217,263.991C1001.841,263.991 1003.271,264.354 1004.507,265.079C1005.742,265.805 1006.784,267.1 1007.631,268.965C1008.479,270.831 1009.114,273.422 1009.538,276.738C1009.962,280.055 1010.174,284.407 1010.174,289.796L1010.174,412.605L1034.43,412.605C1034.924,414.885 1035.383,417.943 1035.807,421.777C1036.23,425.612 1036.442,429.602 1036.442,433.747C1036.442,442.038 1035.842,447.894 1034.642,451.314C1033.441,454.734 1031.852,456.444 1029.875,456.444L1001.488,456.444Z" style="fill:rgb(205,38,40);fill-rule:nonzero;"/>
        </g>
        <g transform="matrix(1.359489,0,0,0.463158,-837.562924,-54.163004)">
            <path d="M1036.654,310.627C1036.16,308.347 1035.701,305.238 1035.277,301.3C1034.853,297.362 1034.642,293.216 1034.642,288.864C1034.642,280.78 1035.259,274.976 1036.495,271.453C1037.731,267.929 1039.337,266.167 1041.315,266.167L1087.497,266.167C1087.991,268.447 1088.45,271.556 1088.874,275.495C1089.297,279.433 1089.509,283.578 1089.509,287.931C1089.509,296.015 1088.891,301.818 1087.656,305.342C1086.42,308.865 1084.813,310.627 1082.836,310.627L1071.079,310.627L1071.079,454.267C1070.302,454.889 1069.084,455.511 1067.424,456.133C1065.765,456.755 1064.123,457.065 1062.499,457.065C1060.875,457.065 1059.445,456.703 1058.209,455.977C1056.974,455.252 1055.932,453.956 1055.085,452.091C1054.237,450.225 1053.602,447.635 1053.178,444.318C1052.754,441.002 1052.542,436.649 1052.542,431.26L1052.542,310.627L1036.654,310.627Z" style="fill:rgb(205,38,40);fill-rule:nonzero;"/>
        </g>
        <g transform="matrix(1.359489,0,0,0.463158,-837.562924,-54.163004)">
            <path d="M1117.049,454.267C1116.272,454.889 1115.054,455.511 1113.395,456.133C1111.735,456.755 1110.093,457.065 1108.469,457.065C1106.845,457.065 1105.415,456.703 1104.179,455.977C1102.944,455.252 1101.902,453.956 1101.055,452.091C1100.207,450.225 1099.572,447.635 1099.148,444.318C1098.724,441.002 1098.513,436.649 1098.513,431.26L1098.513,267.1C1099.289,266.685 1100.525,266.115 1102.22,265.39C1103.915,264.665 1105.539,264.302 1107.092,264.302C1108.716,264.302 1110.146,264.665 1111.382,265.39C1112.618,266.115 1113.66,267.411 1114.507,269.276C1115.354,271.142 1115.99,273.733 1116.413,277.049C1116.837,280.365 1117.049,284.718 1117.049,290.107L1117.049,454.267Z" style="fill:rgb(205,38,40);fill-rule:nonzero;"/>
        </g>
        <g transform="matrix(1.359489,0,0,0.463158,-837.562924,-54.163004)">
            <path d="M1154.863,354.465C1157.829,354.465 1160.106,352.445 1161.695,348.403C1163.284,344.361 1164.078,338.195 1164.078,329.904C1164.078,322.027 1163.249,315.965 1161.589,311.715C1159.93,307.466 1157.511,305.342 1154.334,305.342C1153.204,305.342 1152.268,305.394 1151.527,305.497C1150.785,305.601 1150.026,305.86 1149.249,306.275L1149.249,354.465L1154.863,354.465ZM1149.355,454.267C1148.579,454.889 1147.36,455.511 1145.701,456.133C1144.042,456.755 1142.4,457.065 1140.776,457.065C1139.151,457.065 1137.721,456.703 1136.486,455.977C1135.25,455.252 1134.208,453.956 1133.361,452.091C1132.514,450.225 1131.878,447.635 1131.454,444.318C1131.031,441.002 1130.819,436.649 1130.819,431.26L1130.819,284.822C1130.819,280.469 1131.225,277.101 1132.037,274.717C1132.849,272.334 1133.961,270.416 1135.374,268.965C1137.774,266.478 1140.511,264.665 1143.583,263.525C1146.654,262.385 1149.744,261.815 1152.851,261.815C1162.596,261.815 1170.045,267.929 1175.2,280.158C1180.355,292.387 1182.933,308.969 1182.933,329.904C1182.933,340.06 1182.385,349.232 1181.291,357.419C1180.196,365.606 1178.572,372.654 1176.418,378.561C1174.265,384.468 1171.546,389.028 1168.262,392.241C1164.979,395.454 1161.183,397.06 1156.876,397.06L1149.355,397.06L1149.355,454.267Z" style="fill-rule:nonzero;"/>
        </g>
        <g transform="matrix(1.359489,0,0,0.463158,-837.562924,-54.163004)">
            <path d="M1189.182,360.995C1189.182,344.827 1190.047,330.525 1191.777,318.089C1193.507,305.653 1195.873,295.237 1198.874,286.843C1201.875,278.448 1205.406,272.075 1209.466,267.722C1213.526,263.369 1217.922,261.193 1222.653,261.193C1227.385,261.193 1231.78,263.369 1235.841,267.722C1239.901,272.075 1243.449,278.448 1246.486,286.843C1249.522,295.237 1251.906,305.653 1253.636,318.089C1255.366,330.525 1256.231,344.827 1256.231,360.995C1256.231,377.162 1255.383,391.515 1253.689,404.055C1251.994,416.595 1249.646,427.063 1246.645,435.457C1243.644,443.852 1240.095,450.225 1236,454.578C1231.904,458.931 1227.455,461.107 1222.653,461.107C1217.852,461.107 1213.403,458.879 1209.307,454.423C1205.212,449.966 1201.681,443.489 1198.715,434.991C1195.749,426.493 1193.419,416.025 1191.724,403.589C1190.029,391.153 1189.182,376.955 1189.182,360.995ZM1208.248,360.995C1208.248,379.856 1209.554,393.951 1212.167,403.278C1214.78,412.605 1218.275,417.269 1222.653,417.269C1227.102,417.269 1230.633,412.605 1233.246,403.278C1235.858,393.951 1237.165,379.856 1237.165,360.995C1237.165,342.34 1235.876,328.349 1233.299,319.022C1230.721,309.695 1227.208,305.031 1222.759,305.031C1218.381,305.031 1214.868,309.643 1212.22,318.866C1209.572,328.09 1208.248,342.133 1208.248,360.995Z" style="fill-rule:nonzero;"/>
        </g>
        <g transform="matrix(1.359489,0,0,0.463158,-837.562924,-54.163004)">
            <path d="M1285.042,380.582C1281.934,377.473 1279.11,374.312 1276.568,371.099C1274.026,367.886 1271.837,364 1270.001,359.44C1268.165,354.88 1266.735,349.439 1265.711,343.117C1264.687,336.795 1264.175,329.075 1264.175,319.955C1264.175,302.336 1266.488,288.242 1271.113,277.671C1275.738,267.1 1282.217,261.815 1290.549,261.815C1293.586,261.815 1296.411,262.436 1299.023,263.68C1301.636,264.924 1303.878,266.841 1305.749,269.432C1307.621,272.023 1309.086,275.339 1310.145,279.381C1311.204,283.423 1311.734,288.138 1311.734,293.527C1311.734,298.916 1311.31,303.528 1310.463,307.363C1309.615,311.197 1308.592,314.462 1307.391,317.156C1305.838,314.255 1303.754,311.715 1301.142,309.539C1298.529,307.363 1295.669,306.275 1292.562,306.275C1289.384,306.275 1287.054,307.57 1285.571,310.161C1284.088,312.752 1283.347,316.016 1283.347,319.955C1283.347,323.064 1283.806,325.603 1284.724,327.572C1285.642,329.541 1287.019,331.355 1288.855,333.013L1294.469,338.298C1301.106,344.516 1306.208,352.445 1309.774,362.083C1313.34,371.721 1315.123,384.831 1315.123,401.413C1315.123,419.031 1312.758,433.281 1308.027,444.163C1303.295,455.045 1296.34,460.485 1287.16,460.485C1283.912,460.485 1280.893,459.708 1278.104,458.154C1275.314,456.599 1272.878,454.319 1270.795,451.314C1268.712,448.308 1267.088,444.577 1265.923,440.121C1264.757,435.665 1264.175,430.535 1264.175,424.731C1264.175,418.72 1264.775,413.59 1265.976,409.341C1267.176,405.092 1268.482,401.827 1269.895,399.547C1271.872,404.107 1274.29,408.045 1277.15,411.362C1280.01,414.678 1283.135,416.336 1286.524,416.336C1289.985,416.336 1292.421,414.782 1293.833,411.673C1295.245,408.564 1295.952,404.936 1295.952,400.791C1295.952,396.645 1295.387,393.485 1294.257,391.308C1293.127,389.132 1291.538,387.007 1289.49,384.935L1285.042,380.582Z" style="fill-rule:nonzero;"/>
        </g>
        <g transform="matrix(1.359489,0,0,0.463158,-837.562924,-54.163004)">
            <path d="M1320.843,310.627C1320.349,308.347 1319.89,305.238 1319.466,301.3C1319.043,297.362 1318.831,293.216 1318.831,288.864C1318.831,280.78 1319.449,274.976 1320.684,271.453C1321.92,267.929 1323.527,266.167 1325.504,266.167L1371.686,266.167C1372.18,268.447 1372.639,271.556 1373.063,275.495C1373.487,279.433 1373.698,283.578 1373.698,287.931C1373.698,296.015 1373.081,301.818 1371.845,305.342C1370.609,308.865 1369.003,310.627 1367.025,310.627L1355.268,310.627L1355.268,454.267C1354.491,454.889 1353.273,455.511 1351.614,456.133C1349.954,456.755 1348.312,457.065 1346.688,457.065C1345.064,457.065 1343.634,456.703 1342.398,455.977C1341.163,455.252 1340.121,453.956 1339.274,452.091C1338.426,450.225 1337.791,447.635 1337.367,444.318C1336.943,441.002 1336.732,436.649 1336.732,431.26L1336.732,310.627L1320.843,310.627Z" style="fill-rule:nonzero;"/>
        </g>
    </g>
</svg>
