<?xml version="1.0" encoding="UTF-8" standalone="no"?>
<!DOCTYPE svg PUBLIC "-//W3C//DTD SVG 1.1//EN" "http://www.w3.org/Graphics/SVG/1.1/DTD/svg11.dtd">
<svg width="100%" height="100%" viewBox="0 0 524 431" version="1.1" xmlns="http://www.w3.org/2000/svg" xmlns:xlink="http://www.w3.org/1999/xlink" xml:space="preserve" xmlns:serif="http://www.serif.com/" style="fill-rule:evenodd;clip-rule:evenodd;stroke-linejoin:round;stroke-miterlimit:2;">
    <g transform="matrix(1,0,0,1,-237.806,-203.856018)">
        <path d="M499.373,335.358C483.868,335.358 470.948,347.991 470.948,363.496C470.948,379.288 483.868,391.921 499.373,391.921C515.164,391.921 527.798,379.288 527.798,363.496C527.798,361.773 527.798,359.763 527.224,358.041C524.64,359.763 521.768,360.912 518.61,360.912L518.61,361.486C518.61,365.219 515.452,368.377 511.432,368.377C507.699,368.377 504.541,365.219 504.541,361.486C504.541,360.05 505.115,358.615 505.977,357.466C501.383,354.021 498.225,348.565 498.225,342.249C498.225,339.665 498.799,337.368 499.66,335.358L499.373,335.358Z" style="fill:rgb(3,4,5);"/>
        <path d="M499.373,301.765C465.206,301.765 437.642,329.616 437.642,363.496C437.642,397.664 465.206,425.514 499.373,425.514C533.54,425.514 561.391,397.664 561.391,363.496C561.391,329.616 533.54,301.765 499.373,301.765ZM407.207,572.521C407.207,589.46 420.989,603.529 437.929,603.529C454.869,603.529 468.651,589.46 468.651,572.521L468.651,541.798C468.651,525.146 482.433,511.076 499.373,511.076C516.313,511.076 530.095,525.146 530.095,541.798L530.095,603.529C530.095,620.182 544.164,634.251 560.816,634.251C577.757,634.251 591.539,620.182 591.539,603.529L591.539,511.076L652.982,455.662L675.378,455.662C687.725,455.662 697.486,445.613 697.486,433.554L697.486,379.862C697.486,367.516 687.725,357.466 675.378,357.466L652.982,357.466C652.982,273.053 584.073,203.856 499.373,203.856C414.959,203.856 345.763,273.053 345.763,357.466L323.655,357.466C311.309,357.466 301.259,367.516 301.259,379.862L301.259,433.554C301.259,445.613 311.309,455.662 323.655,455.662L345.763,455.662L407.207,511.076L407.207,572.521Z" style="fill:rgb(205,38,40);"/>
        <path d="M707.248,433.554L761.227,433.554C761.227,403.693 737.109,379.862 707.248,379.862L707.248,433.554Z" style="fill:rgb(205,38,40);"/>
        <path d="M291.498,433.554L237.806,433.554C237.806,403.693 261.924,379.862 291.498,379.862L291.498,433.554Z" style="fill:rgb(205,38,40);"/>
    </g>
</svg>
